<svg height="90" viewBox="0 0 122 158" fill="none"
    xmlns="http://www.w3.org/2000/svg">
    <g filter="url(#filter0_dd)">
        <path d="M116.75 8C116.75 4.13401 113.616 1 109.75 1H74.0832C70.2172 1 67.0832 4.13402 67.0832 8.00001V38.2502H43.043C39.177 38.2502 36.043 41.3842 36.043 45.2502V75.5001H12C8.134 75.5001 5 78.6341 5 82.5001V143C5 146.866 8.13401 150 12 150H109.75C113.616 150 116.75 146.866 116.75 143V8Z" fill="#FDF6D7"/>
    </g>
    <path d="M110.751 1C114.064 1 116.751 3.68629 116.751 7V144C116.751 147.314 114.064 150 110.751 150H73.084C69.7703 150 67.084 147.314 67.084 144V7C67.084 3.6863 69.7703 1 73.084 1H110.751Z" fill="url(#paint0_linear)"/>
    <path d="M85.7096 44.4583V150H36.043V44.25C36.043 40.9363 38.7293 38.25 42.043 38.25H79.5013C82.93 38.25 85.7096 41.0296 85.7096 44.4583Z" fill="url(#paint1_linear)"/>
    <path d="M11 75.5C7.68628 75.5 5 78.1863 5 81.5V144C5 147.314 7.68629 150 11 150H54.6667V81.7083C54.6667 78.2796 51.887 75.5 48.4583 75.5H11Z" fill="url(#paint2_linear)"/>
    <defs>
        <filter id="filter0_dd" x="2.14" y="0.54" height="90" filterUnits="userSpaceOnUse" color-interpolation-filters="sRGB">
            <feFlood flood-opacity="0" result="BackgroundImageFix"/>
            <feColorMatrix in="SourceAlpha" type="matrix" values="0 0 0 0 0 0 0 0 0 0 0 0 0 0 0 0 0 0 127 0"/>
            <feOffset dy="4.32"/>
            <feGaussianBlur stdDeviation="1.43"/>
            <feColorMatrix type="matrix" values="0 0 0 0 0 0 0 0 0 0 0 0 0 0 0 0 0 0 0.2 0"/>
            <feBlend mode="normal" in2="BackgroundImageFix" result="effect1_dropShadow"/>
            <feColorMatrix in="SourceAlpha" type="matrix" values="0 0 0 0 0 0 0 0 0 0 0 0 0 0 0 0 0 0 127 0"/>
            <feOffset dy="0.64"/>
            <feGaussianBlur stdDeviation="0.55"/>
            <feColorMatrix type="matrix" values="0 0 0 0 0 0 0 0 0 0 0 0 0 0 0 0 0 0 0.12 0"/>
            <feBlend mode="normal" in2="effect1_dropShadow" result="effect2_dropShadow"/>
            <feBlend mode="normal" in="SourceGraphic" in2="effect2_dropShadow" result="shape"/>
        </filter>
        <linearGradient id="paint0_linear" x1="58.8061" y1="0.999998" x2="124.302" y2="139.829" gradientUnits="userSpaceOnUse">
            <stop stop-color="#E6AD10"/>
            <stop offset="1" stop-color="#C87E0E"/>
        </linearGradient>
        <linearGradient id="paint1_linear" x1="36.0389" y1="38.25" x2="91.12" y2="145.074" gradientUnits="userSpaceOnUse">
            <stop stop-color="#F6D751"/>
            <stop offset="1" stop-color="#E6AD10"/>
        </linearGradient>
        <linearGradient id="paint2_linear" x1="4.99597" y1="75.5" x2="35.4336" y2="147.637" gradientUnits="userSpaceOnUse">
            <stop stop-color="#F9E589"/>
            <stop offset="1" stop-color="#F6D751"/>
        </linearGradient>
    </defs>
</svg>
